# xmcd
#
# Track frame offsets:
#	150
#	24760
#	40812
#	58932
#	76042
#	92558
#	114884
#	131790
#	151007
#	165595
#	185200
#	201847
#	221364
#	243114
#	256487
#	277301
#	296262
#	314164
#	329746
#	343524
#
# Disc length: 4785 seconds
#
# Revision: 0
# Processed by: cddbd v1.5.1PL0 Copyright (c) Steve Scherf et al.
# Submitted via: audiograbber 1.83.01
#
DISCID=2112af14
DTITLE=Varios - R'n'b Collection 2005 Disk2
DYEAR=2005
DGENRE=Hip-Hop
TTITLE0=Mary J ft. 50 Cent and Beyonce - In Da Club (Dollabeelz Mix)
TTITLE1=K'Maro - Crazy
TTITLE2=G-Unit - Poppin' Them Thangs
TTITLE3=Blue Cantell ft. Sean Paul - Breathe
TTITLE4=Colagero ft. Passi - Face A La Mer
TTITLE5=Faith Evans ft. Carl Thomas and Shyne - Can't Believe
TTITLE6=Young Buck ft. 50 Cent - Let Me In (Dirty)
TTITLE7=Ja Rule ft. Ashanti - Turn It Up
TTITLE8=Lloyd Banks ft. Alchemist - Bangers (Dirty)
TTITLE9=Young Buck - Shorty Wanna Ride
TTITLE10=Kanye West - Through The Wire
TTITLE11=Young Buck ft. Lil'Flip - Real Niggaz
TTITLE12=Horage Brown - Things We Do For Love
TTITLE13=Oxmo Puccino - Toucher L'horizon
TTITLE14=Nelly ft. St. Lunatics - Getcha Getcha
TTITLE15=Ashanti ft. T.I. - Still Down
TTITLE16=Mario Winans ft. P. Daddy and Enya - I Don't Wanna Know
TTITLE17=Steal - Call U Sexy
TTITLE18=VS - Walk On By
TTITLE19=Beyounce - Naughty Girl
EXTD=
EXTT0=
EXTT1=
EXTT2=
EXTT3=
EXTT4=
EXTT5=
EXTT6=
EXTT7=
EXTT8=
EXTT9=
EXTT10=
EXTT11=
EXTT12=
EXTT13=
EXTT14=
EXTT15=
EXTT16=
EXTT17=
EXTT18=
EXTT19=
PLAYORDER=
